<?xml version="1.0" encoding="utf-8"?>
<!-- Generator: Adobe Illustrator 19.0.0, SVG Export Plug-In . SVG Version: 6.00 Build 0)  -->
<svg version="1.1" id="Layer_x5F_1_x5F_1" xmlns="http://www.w3.org/2000/svg" xmlns:xlink="http://www.w3.org/1999/xlink" x="0px"
	 y="0px" viewBox="0 0 612 792" style="enable-background:new 0 0 612 792;" xml:space="preserve">
<style type="text/css">
	.st0{fill-rule:evenodd;clip-rule:evenodd;fill:#FFFFFF;}
</style>
<g>
	<g>
		<path class="st0" d="M97.1,332.7c11.8-2.8,10.7-16.6,11.8-26C104.4,315.1,100.6,323.9,97.1,332.7z M110.7,327.8
			c2.8-0.4,5.6-0.7,8.4-0.9c-0.1-7.5,0-15-0.2-22.4C114.9,311.7,112.1,319.6,110.7,327.8z M256.8,269.9
			c-26.6,20.8-56.6,40.1-91.1,43c-14.8,2.3-29.5-1.9-42.8-8.1c0.2,6.6,0.2,13.2-0.1,19.8c7.6-0.4,14.9-2.2,22.2-4.2
			c42.4-9.9,85.2-17.8,128.1-24.9c12.9-2.1,25.7-4.8,38.7-5.8c1-23.2,0.5-46.5-0.1-69.7C293.6,236.7,276.5,254.8,256.8,269.9z
			 M335.3,214.4c2,23.3,3.8,46.6,5.5,70c47.6-6.4,95.3-13,142.9-19.3c-32.2-3.5-64.9-7.6-95.2-19.7
			C369.4,237.7,352.4,225.8,335.3,214.4z M316.6,216.8c-0.2,23.8,0.5,47.6,0,71.4c6.3-0.8,12.7-1.5,19-2.4
			c-0.8-25.4-3.8-50.8-5.3-76.2c-2.2-1.3-4.3-2.7-6.5-4C321.2,209.1,316.3,211.9,316.6,216.8z M333.5,202.8
			c2.9,6.3,9.3,9.4,14.7,13.3c20.4,14,42.5,26.1,66.6,32.1c16.9,3.8,33.6,9.4,51,9.5c-25.5-7.5-52-11.8-76.4-22.7
			c-12.9-6-25.4-12.8-37.3-20.6C345.8,210.5,340.2,205.8,333.5,202.8z M316.3,198.8c-0.1,3.3,0,6.7,0.1,10.1
			c1.8-1.9,3.6-3.9,5.3-5.9C319.9,201.7,318,200.3,316.3,198.8z M235,274.1c-12.8,11-27.3,19.5-41.5,28.4c12.3-3,23.1-9.7,33.9-16
			c30.2-18.9,56.6-43.2,81.1-68.8c5.7-4.9,2.8-13.1,3.1-19.5C287.5,224.9,263.2,251.6,235,274.1z M306,198.9
			c2.7-3.4,5.9-6.3,9.1-9.3c3.2,3.2,7,5.7,10.3,8.8c2.1-1.7,4.2-3.5,6.4-5.2c23.2,17,47.6,33.2,75.1,42.3
			c31.1,10.2,62.9,17.9,94.8,24.9c10.2,2.6,20.4-0.6,30.7-0.7l-2.2,5.3c-15.7,0.7-31.1,3.9-46.6,5.7c-47.2,7.7-94.7,13.4-141.7,21.7
			c0.7,21.4,4.9,42.7,4.1,64.1c-0.9-0.1-2.8-0.2-3.8-0.3c-2.3-21-3.1-42.2-5.5-63.2c-6.4,0.9-12.8,1.8-19.2,2.5
			c-1.2,19,0.4,38-0.1,57c0.3,2.8-2.2,4.5-3.8,6.4c-1.7-20.5-0.4-41.1-1.3-61.6c-30.4,3.6-60.6,9.6-90.8,14.5
			c-32.7,5.2-65.1,11.8-97.4,19c-0.4,8.4,1.4,17.2-0.8,25.4c-0.9,0.2-2.8,0.6-3.8,0.8c-0.8-8.2-0.3-16.4-0.4-24.6
			c-2.8,0.4-5.6,0.6-8.4,1.1c-0.8,7.4-1,14.9-2.4,22.2c-0.8,0.6-2.5,1.7-3.4,2.3c-0.3-7.7,0.4-15.5,0.3-23.2
			c-11.3,3.4-22.7,6.7-34.5,7.8c4.3-8.3,16-4.8,22-10.9c8.9-13.7,12-30.2,19.5-44.5c1.7,1.1,3.6,2.1,5.5,2.9
			c2.6-0.2,5.9-2.2,7.7,0.9c7.9,9.1,18.9,15.2,30.9,16.6c11.5,1.7,22.8-2.4,33-7.4c25.8-12.8,48.1-31.4,69.3-50.8
			C275.2,233.6,291.2,216.8,306,198.9z M270.6,108.2c-45.2,5.1-89,21.4-126.6,46.9c-49.7,33.6-87.7,83.8-107.4,140.4
			c-11.2,33.1-16.5,68.3-14.7,103.2C24.1,460.5,48.2,521,88.3,568c43.3,51.2,105.5,85.7,171.8,95.6c35.1,4.9,71.3,3.9,105.9-4.5
			c66.1-15.3,125.9-55.8,164.8-111.4c33-46.7,51.1-103.7,50.8-161c0.4-54.8-16.2-109.5-46.7-155.1c-38-57.7-98.3-100.3-165.5-116.7
			C337.2,106.7,303.6,104.7,270.6,108.2z M270.5,97.9c61.8-6.8,125.7,6.9,179,38.9c56.1,33,100.5,85.6,123.5,146.5
			c20.5,53.4,24.4,112.9,11.6,168.6c-14.5,63.4-51.1,121.4-102,161.8c-47.2,37.7-106.5,60.4-166.9,62.9
			c-61.2,3.3-123.1-13.8-174.1-47.7C92.5,596.6,53.7,549,32,494.4C5.7,429.5,4.3,354.9,28,289c18.9-53.3,54-100.8,99.2-134.7
			C168.8,123.1,218.8,103.2,270.5,97.9z M272.2,93.2c-53.4,5.4-105.4,25.3-148.2,57.9C70.2,191.6,30.8,251,15.1,316.6
			C0,378.4,5.4,445.1,30.9,503.4c25,58.3,69.5,108,124.7,139.3c53.5,30.6,116.7,43.8,178,36.9c63.4-6.6,124.2-34.7,170.4-78.6
			c45.3-42.5,76.6-99.6,87.6-160.7c10.3-54.5,4.4-111.8-16.1-163.3c-24.2-60.9-69.5-113.1-126.3-145.8
			C396.1,100.3,333.2,87,272.2,93.2z M141.7,134.8c46.4-29.7,101-45.4,155.9-46.8c68.6-0.2,137.3,22.7,190.7,66
			c56.6,45.1,95.5,111.6,107.3,183c3.4,23.3,6.2,47,3.4,70.6c-4.2,60.5-27.4,119.7-65.8,166.7c-41.5,51.5-100.8,88.5-165.4,102.9
			c-15,3.5-30.3,5.2-45.5,7.5H281c-21.2-2.8-42.6-5.8-63.2-12C148,652.5,86.5,605.7,48.3,544C17.9,495.4,2.7,437.9,3,380.7
			c1.5-34.3,7.7-68.5,20-100.6C45.6,220.6,87.9,168.8,141.7,134.8z"/>
	</g>
	<g>
		<polygon class="st0" points="71.1,467 94.9,467 94.9,464 71.1,464 71.1,442 96.3,442 96.3,439 67.4,439 67.4,491 71.1,491 		"/>
		<polygon class="st0" points="132.4,491 132.4,488 107.9,488 107.9,439 104.3,439 104.3,491 		"/>
		<path class="st0" d="M147.6,447.2c3.4-4.2,8.2-6.2,14.4-6.2c6.2,0,11,2.1,14.4,6.2c3.3,4.1,5,10,5,17.8c0,7.8-1.7,13.7-5,17.9
			c-3.4,4.2-8.2,6.2-14.5,6.2c-6.2,0-11-2.1-14.4-6.3c-3.3-4.2-5-10.1-5-17.8C142.6,457.3,144.3,451.4,147.6,447.2z M179.2,445.2
			c-4.1-4.8-9.9-7.2-17.1-7.2c-7.2,0-13,2.4-17.2,7.2c-4.2,4.8-6.3,11.4-6.3,19.7c0,8.4,2.1,15,6.2,19.8c4.1,4.8,9.9,7.3,17.1,7.3
			c7.3,0,13-2.4,17.2-7.3c4.1-4.8,6.2-11.4,6.2-19.8C185.4,456.6,183.3,450,179.2,445.2z"/>
		<path class="st0" d="M200.9,442h8.5c5.3,0,9.1,0.9,11.5,2.7c2.4,1.8,3.5,4.7,3.5,8.7c0,3.8-1.2,6.7-3.6,8.7
			c-2.4,2-5.8,2.9-10.1,2.9h-9.8V442z M213.8,468l13.3,23h4.4l-14-24c3.7-1,6.5-2.7,8.3-5.1c1.8-2.4,2.7-5.3,2.7-8.7
			c0-4.7-1.5-8.3-4.6-10.6c-3.1-2.3-7.8-3.5-14.2-3.5h-12.3v52h3.6v-23H213.8z"/>
		<rect x="240.2" y="439" class="st0" width="3.6" height="52"/>
		<path class="st0" d="M262.1,442h8.7c5.2,0,9.1,1,11.6,2.9c2.5,1.9,3.8,4.9,3.8,8.9c0,4.3-1.3,7.5-3.9,9.4
			c-2.6,1.9-6.9,2.9-12.8,2.9h-7.2V442z M271.3,439h-12.8v52h3.6v-22h8.1c6.3,0,11.2-1.3,14.6-4c3.4-2.6,5.2-6.4,5.2-11.4
			C290,443.9,283.8,439,271.3,439z"/>
		<path class="st0" d="M314,450.8c0.8-1.8,1.5-3.8,2.1-6c0.8,2.6,1.6,4.5,2.1,6l7.1,18.3h-18.7L314,450.8z M333.9,491h4.1l-20.6-52
			H315l-21,52h4l7.3-19h21.3L333.9,491z"/>
	</g>
	<path class="st0" d="M356,476.5c0-1.9,1.6-3.5,3.5-3.5s3.5,1.6,3.5,3.5s-1.6,3.5-3.5,3.5S356,478.4,356,476.5z"/>
	<g>
		<polygon class="st0" points="215.9,402 230.7,402 230.7,400 215.9,400 215.9,386 231.6,386 231.6,384 213.6,384 213.6,416 
			215.9,416 		"/>
		<path class="st0" d="M238.8,386h5.4c3.3,0,5.8,0.6,7.2,1.7c1.5,1.1,2.2,2.9,2.2,5.3c0,2.3-0.8,4.1-2.3,5.3
			c-1.5,1.2-3.6,1.8-6.4,1.8h-6.2V386z M246.9,402l8.4,14h2.7l-8.8-14.6c2.3-0.6,4.1-1.7,5.2-3.2c1.1-1.5,1.7-3.3,1.7-5.4
			c0-2.9-1-5.1-2.9-6.6s-4.9-2.2-8.9-2.2h-7.7v32h2.2v-14H246.9z"/>
		<path class="st0" d="M267.3,389.6c2-2.4,5-3.6,8.7-3.6s6.7,1.2,8.7,3.6c2,2.4,3,5.8,3,10.3c0,4.5-1,8-3,10.4
			c-2,2.4-4.9,3.6-8.7,3.6c-3.8,0-6.7-1.2-8.7-3.7c-2-2.4-3-5.9-3-10.4C264.2,395.5,265.3,392.1,267.3,389.6z M286.4,388.3
			c-2.5-2.8-6-4.3-10.4-4.3c-4.4,0-7.9,1.4-10.4,4.3c-2.5,2.8-3.8,6.8-3.8,11.7c0,5,1.2,8.9,3.8,11.8c2.5,2.9,6,4.3,10.4,4.3
			c4.4,0,7.9-1.4,10.4-4.3c2.5-2.9,3.8-6.8,3.8-11.7C290.2,395,288.9,391.1,286.4,388.3z"/>
		<path class="st0" d="M320.5,384h-2.2v20.9c0,2.4,0.1,4.9,0.2,7.5h-0.1L299.7,384h-2.2v32h2.2v-20.8c0-1.7-0.1-4.3-0.3-7.7h0.2
			l18.7,28.4h2.3V384z"/>
		<polygon class="st0" points="338.1,386 348.8,386 348.8,384 325.2,384 325.2,386 335.8,386 335.8,416 338.1,416 		"/>
		<polygon class="st0" points="355.8,416 361.5,383.9 359.2,383.9 353.5,416 		"/>
		<path class="st0" d="M393.6,383.9h-2.2l-3.7,21c-0.4,2.4-0.8,4.9-1.1,7.5h-0.1l-14-28.5h-2.2l-5.7,32.1h2.2l3.7-20.8
			c0.3-1.7,0.6-4.3,1.1-7.7h0.2l14,28.5h2.3L393.6,383.9z"/>
	</g>
	<rect x="67" y="397" class="st0" width="132" height="2"/>
	<rect x="405" y="397" class="st0" width="132" height="2"/>
	<rect x="67" y="517" class="st0" width="470" height="2"/>
</g>
<g>
	<g>
		<path class="st0" d="M411.9,488h-28.1v-0.1l13.4-14.2c4.7-4.9,7.9-9,9.6-12.3c1.8-3.3,2.6-6.8,2.6-10.3c0-4.4-1.3-7.8-3.9-10.3
			c-2.6-2.5-6.2-3.8-10.8-3.8c-5.3,0-10.2,1.8-14.6,5.3l1.9,2.5c4-3.2,8.2-4.8,12.6-4.8c3.3,0,5.9,1,8,3c2.1,2,3.1,4.7,3.1,7.9
			c0,2.2-0.4,4.3-1.1,6.4c-0.8,2-1.9,4.1-3.5,6.4c-1.6,2.2-4.3,5.4-8.2,9.6l-14,15v2.8h32.9V488z"/>
		<path class="st0" d="M428.1,446.2c2-4.1,5.3-6.2,9.8-6.2c4.5,0,7.8,2.1,9.9,6.2c2.1,4.1,3.1,10.2,3.1,18.2
			c0,8.1-1.1,14.2-3.1,18.4c-2.1,4.1-5.4,6.2-9.9,6.2c-4.3,0-7.6-2-9.7-6c-2.1-4-3.2-10.2-3.2-18.6C425,456.4,426,450.4,428.1,446.2
			z M450.5,444c-2.9-4.6-7.1-7-12.6-7c-5.7,0-9.9,2.2-12.6,6.7c-2.8,4.5-4.1,11.4-4.1,20.7c0,9.1,1.4,16,4.3,20.6
			c2.8,4.6,7,7,12.5,7c5.7,0,10-2.2,12.8-6.8s4.2-11.5,4.2-20.8C454.9,455.4,453.5,448.6,450.5,444z"/>
		<path class="st0" d="M483.5,438h-3.1l-14.4,10.8l2.1,2.6c7.1-5.5,10.8-8.5,11.2-8.8c0.4-0.3,0.8-0.7,1.1-1.1
			c-0.3,3.8-0.4,7.4-0.4,10.9V491h3.5V438z"/>
		<path class="st0" d="M511.6,460l1.6-19h21.9v-3h-25.3l-2.1,24l2.1,1.4c3.4-0.9,6.6-1.4,9.8-1.4c4.6,0,8.3,1.2,11,3.5
			s4.1,5.5,4.1,9.5c0,4.3-1.4,7.7-4.2,10.2c-2.8,2.5-6.5,3.8-11,3.8c-2.3,0-4.4-0.2-6.4-0.8c-2-0.5-4.3-1.4-6.9-2.8v3.7
			c1.6,0.9,3.5,1.6,5.9,2.1c2.3,0.5,4.8,0.7,7.4,0.7c5.9,0,10.5-1.5,13.9-4.6c3.3-3.1,5-7.3,5-12.9c0-4.8-1.6-8.6-4.8-11.4
			c-3.2-2.8-7.6-4.2-13.2-4.2C518.2,459,515.3,459.4,511.6,460z"/>
	</g>
</g>
</svg>
