<?xml version="1.0" standalone="no"?>
<!DOCTYPE svg PUBLIC "-//W3C//DTD SVG 20010904//EN"
 "http://www.w3.org/TR/2001/REC-SVG-20010904/DTD/svg10.dtd">
<svg version="1.0" xmlns="http://www.w3.org/2000/svg"
 width="260.000000pt" height="260.000000pt" viewBox="0 0 260.000000 260.000000"
 preserveAspectRatio="xMidYMid meet">
<metadata>
Created by potrace 1.11, written by Peter Selinger 2001-2013
</metadata>
<g transform="translate(0.000000,260.000000) scale(0.100000,-0.100000)"
fill="#000000" stroke="none">
<path d="M1189 2466 c-2 -2 -29 -7 -59 -11 -144 -18 -383 -117 -501 -207 -224
-170 -371 -389 -439 -654 -45 -173 -47 -388 -5 -556 96 -385 382 -696 757
-824 472 -160 994 6 1296 415 182 244 260 566 210 860 -43 256 -151 467 -328
642 -218 214 -478 325 -786 335 -77 2 -142 3 -145 0z m321 -32 c112 -21 176
-42 269 -85 398 -186 655 -572 666 -1004 13 -487 -277 -922 -735 -1100 -121
-47 -226 -67 -375 -71 -189 -5 -372 34 -530 113 -211 106 -407 299 -509 503
-91 181 -121 311 -121 525 0 142 4 172 28 270 68 265 241 519 455 664 72 49
218 122 287 145 168 54 402 71 565 40z"/>
<path d="M1135 2424 c-168 -27 -326 -90 -469 -186 -85 -58 -232 -209 -291
-298 -193 -295 -241 -653 -133 -983 128 -392 477 -691 885 -758 77 -12 253
-15 328 -5 252 34 481 151 659 336 213 221 315 478 314 788 0 201 -38 350
-133 529 -105 198 -286 374 -490 476 -46 23 -219 87 -230 86 -7 -1 -85 12
-110 18 -45 11 -255 9 -330 -3z m315 -38 c521 -73 912 -501 937 -1026 14 -315
-104 -610 -333 -829 -133 -129 -275 -211 -454 -262 -97 -29 -150 -34 -315 -33
-131 0 -163 4 -249 27 -632 173 -972 843 -734 1447 143 361 501 639 870 676
35 3 64 7 65 8 4 4 176 -2 213 -8z"/>
<path d="M1232 1940 c-195 -205 -364 -320 -470 -320 -40 0 -60 7 -100 34 -67
45 -89 50 -98 22 -4 -11 -20 -51 -37 -88 -27 -61 -34 -69 -68 -80 -22 -6 -39
-15 -39 -19 0 -8 26 -6 88 9 l44 10 -6 -39 c-3 -22 -1 -39 4 -39 6 0 11 6 12
13 0 6 2 17 3 22 2 6 3 20 4 33 1 12 7 22 16 22 11 0 15 -12 15 -52 0 -39 3
-49 11 -41 7 7 12 30 13 52 1 21 4 42 7 45 11 11 315 69 589 112 19 3 54 9 77
14 23 4 45 5 48 2 3 -3 5 -57 5 -119 0 -74 4 -112 10 -108 6 4 10 55 10 120 0
114 0 115 25 121 43 11 51 0 54 -63 1 -32 4 -67 6 -78 2 -11 4 -37 4 -57 1
-21 6 -38 12 -38 8 0 10 28 4 98 -4 53 -7 108 -8 122 -2 26 6 29 127 45 23 3
52 8 66 10 47 9 88 15 131 20 24 3 55 8 69 10 14 2 45 7 70 10 24 4 47 8 50
10 3 2 37 6 75 10 94 8 136 18 134 30 0 6 -5 9 -10 7 -30 -8 -96 -2 -179 18
-264 61 -376 105 -508 196 -47 33 -68 42 -79 35 -11 -6 -21 -4 -31 5 -7 8 -16
14 -20 14 -4 0 -62 -59 -130 -130z m118 69 c0 -45 -218 -241 -358 -324 -78
-46 -93 -41 -17 6 66 41 196 157 290 260 39 42 73 77 78 78 4 1 7 -8 7 -20z
m30 11 c0 -5 -2 -10 -4 -10 -3 0 -8 5 -11 10 -3 6 -1 10 4 10 6 0 11 -4 11
-10z m288 -131 c32 -11 96 -31 145 -43 96 -25 124 -39 50 -25 -138 26 -247 69
-355 140 -99 64 -83 67 18 4 47 -30 111 -64 142 -76z m-247 67 c0 -22 2 -48 4
-56 1 -9 5 -57 9 -107 l6 -91 -35 -4 -35 -4 -1 121 c-1 145 0 167 13 182 18
23 38 2 39 -41z m99 -31 c38 -25 100 -57 137 -71 75 -28 230 -64 281 -64 17 0
32 -4 32 -9 0 -6 -8 -9 -17 -9 -20 1 -90 -7 -218 -26 -22 -4 -58 -8 -80 -11
-22 -3 -58 -8 -80 -10 -22 -3 -57 -8 -77 -11 -37 -5 -38 -4 -39 28 -1 18 -3
47 -5 63 -8 74 -13 165 -9 165 2 0 36 -20 75 -45z m-171 -105 c0 -71 -3 -130
-7 -131 -17 -2 -73 -11 -152 -24 -47 -8 -101 -17 -120 -20 -19 -3 -74 -14
-122 -24 -48 -10 -85 -14 -82 -10 3 5 12 9 21 9 26 0 133 59 208 113 68 50
129 103 206 180 20 20 40 37 43 37 2 0 5 -58 5 -130z m-675 -214 c21 -7 62
-12 90 -10 64 4 54 0 -56 -25 l-88 -19 0 34 c0 38 1 39 54 20z m-74 -29 c0
-23 -5 -34 -15 -34 -8 0 -15 1 -15 2 0 8 23 65 26 65 2 0 4 -15 4 -33z m-45
-10 c-4 -15 -13 -31 -21 -38 -18 -15 -18 -7 3 36 19 39 27 40 18 2z"/>
<path d="M980 1320 c-15 -9 -22 -120 -8 -120 4 0 8 11 8 24 0 19 6 26 28 29
l27 4 -27 2 c-23 1 -28 6 -28 26 0 21 5 25 32 25 33 0 34 8 1 14 -11 3 -26 1
-33 -4z"/>
<path d="M1064 1321 c-12 -8 -14 -121 -3 -121 5 0 9 11 9 25 0 14 6 25 13 25
8 0 20 -11 27 -25 7 -14 18 -25 23 -25 5 0 2 11 -7 25 -15 23 -15 27 -1 41 11
12 12 20 5 35 -6 10 -14 19 -18 20 -4 0 -14 2 -23 4 -9 1 -20 0 -25 -4z m54
-33 c2 -9 -5 -19 -17 -23 -28 -9 -40 1 -34 26 7 24 46 23 51 -3z"/>
<path d="M1190 1317 c-34 -17 -48 -59 -30 -92 7 -14 20 -25 29 -25 13 0 13 2
-1 13 -35 26 -20 97 21 97 42 0 58 -69 21 -92 -26 -17 -26 -32 0 -18 68 36 27
151 -40 117z"/>
<path d="M1400 1318 c0 -5 9 -8 19 -8 16 0 19 -8 19 -51 1 -28 3 -54 6 -57 3
-3 6 20 6 51 0 32 5 57 10 57 6 0 10 3 10 8 0 4 -16 7 -35 7 -19 0 -35 -3 -35
-7z"/>
<path d="M1290 1260 c0 -33 3 -60 8 -60 4 0 6 21 5 47 l-2 48 25 -30 c13 -16
27 -38 30 -47 3 -10 11 -18 17 -18 8 0 12 18 11 53 -2 73 -6 80 -13 23 l-6
-50 -29 47 c-17 26 -34 47 -38 47 -4 0 -8 -27 -8 -60z"/>
<path d="M1531 1320 c-5 -10 -9 -36 -15 -80 l-6 -45 15 45 c9 25 14 54 12 65
-3 11 -5 18 -6 15z"/>
<path d="M1569 1313 c0 -5 -2 -17 -4 -28 -2 -11 -7 -36 -10 -55 -5 -24 -3 -32
4 -25 5 6 11 29 13 53 2 23 4 42 5 42 2 0 14 -22 28 -50 14 -27 31 -50 37 -50
6 0 9 2 6 5 -3 3 0 30 7 60 7 30 10 55 6 55 -4 0 -12 -21 -17 -47 l-10 -48
-24 48 c-22 43 -39 59 -41 40z"/>
<path d="M430 1268 c0 -5 99 -8 220 -8 121 0 220 3 220 8 0 4 -99 7 -220 7
-121 0 -220 -3 -220 -7z"/>
<path d="M1717 1268 c-7 -4 37 -8 97 -8 60 0 107 3 103 6 -8 9 -187 10 -200 2z"/>
<path d="M1930 1268 c0 -5 53 -8 117 -8 64 0 114 3 111 6 -9 8 -228 10 -228 2z"/>
<path d="M2170 1268 c0 -5 11 -8 25 -8 14 0 25 3 25 8 0 4 -11 7 -25 7 -14 0
-25 -3 -25 -7z"/>
<path d="M888 1263 c7 -3 16 -2 19 1 4 3 -2 6 -13 5 -11 0 -14 -3 -6 -6z"/>
<path d="M720 1099 c-84 -51 -36 -211 59 -195 47 7 71 34 78 86 13 94 -62 154
-137 109z m95 -24 c33 -32 35 -105 5 -135 -29 -29 -85 -27 -105 4 -61 92 26
206 100 131z"/>
<path d="M1633 1110 c-35 -14 -27 -21 15 -14 78 12 81 -46 5 -127 -25 -27 -43
-52 -39 -56 10 -10 116 -11 116 -1 0 4 -23 8 -52 8 l-52 0 38 38 c36 34 66 86
66 112 0 17 -39 50 -57 49 -10 0 -28 -4 -40 -9z"/>
<path d="M1791 1094 c-16 -20 -21 -41 -21 -84 0 -97 62 -144 109 -84 32 41 30
136 -4 169 -31 32 -58 32 -84 -1z m80 -15 c14 -27 14 -112 -1 -139 -14 -26
-56 -26 -70 -1 -5 11 -10 43 -10 71 0 28 5 60 10 71 14 26 56 25 71 -2z"/>
<path d="M2128 1112 c-11 -2 -18 -13 -19 -28 -1 -13 -2 -34 -2 -46 -1 -20 4
-23 36 -23 46 -1 72 -24 64 -57 -8 -31 -43 -47 -80 -37 -20 5 -27 4 -24 -4 5
-16 61 -21 87 -7 29 16 43 56 29 83 -16 30 -28 37 -66 37 -29 0 -32 3 -29 23
3 12 5 28 5 35 1 7 16 12 43 12 23 0 39 2 37 4 -7 7 -63 13 -81 8z"/>
<path d="M400 1010 c0 -60 4 -100 10 -100 6 0 10 20 10 45 l0 45 46 0 c25 0
43 4 40 8 -2 4 -23 7 -46 5 l-41 -2 3 42 3 42 42 0 c23 0 45 3 49 8 4 4 -20 7
-54 7 l-62 0 0 -100z"/>
<path d="M542 1010 c0 -55 3 -100 7 -101 34 -6 101 -4 101 3 0 4 -20 8 -45 8
l-45 0 0 95 c0 52 -4 95 -9 95 -5 0 -9 -45 -9 -100z"/>
<path d="M906 1102 c-9 -15 -5 -192 5 -192 5 0 9 18 9 39 0 69 45 58 86 -21
10 -18 19 -27 21 -21 3 7 -5 29 -17 48 l-22 35 21 26 c26 33 26 49 1 74 -20
20 -93 29 -104 12z m99 -33 c11 -32 -12 -59 -50 -59 -34 0 -35 1 -35 38 0 21
2 41 5 43 2 3 20 3 39 1 23 -3 37 -10 41 -23z"/>
<path d="M1070 1010 c0 -55 4 -100 8 -100 5 0 9 45 9 100 0 55 -4 100 -9 100
-4 0 -8 -45 -8 -100z"/>
<path d="M1140 1004 c0 -71 3 -103 11 -99 5 4 9 17 8 28 -3 50 0 57 30 57 39
0 74 30 74 64 0 36 -28 55 -80 56 l-43 0 0 -106z m98 69 c6 -9 12 -20 12 -23
0 -17 -29 -39 -57 -43 -28 -4 -31 -2 -35 23 -7 47 7 70 39 64 15 -3 34 -12 41
-21z"/>
<path d="M1345 1074 c-49 -114 -67 -166 -61 -171 3 -4 14 12 23 35 15 39 19
42 55 42 35 0 40 -3 54 -35 22 -53 36 -42 15 13 -10 26 -27 67 -36 92 -26 64
-32 67 -50 24z m45 -65 c0 -12 -8 -16 -30 -15 -16 0 -30 2 -30 3 0 1 8 18 17
38 17 35 17 35 30 13 7 -13 12 -30 13 -39z"/>
<path d="M1966 1089 c-33 -26 -28 -37 6 -15 l25 16 -1 -87 c0 -48 4 -88 9 -90
6 -2 10 36 10 97 0 108 -4 114 -49 79z"/>
<path d="M1525 969 c-10 -15 3 -25 16 -12 7 7 7 13 1 17 -6 3 -14 1 -17 -5z"/>
<path d="M420 801 c0 -4 20 -6 45 -6 25 0 45 3 45 8 0 4 -20 6 -45 5 -25 0
-45 -4 -45 -7z"/>
<path d="M525 800 c3 -5 8 -10 11 -10 2 0 4 5 4 10 0 6 -5 10 -11 10 -5 0 -7
-4 -4 -10z"/>
<path d="M550 802 c0 -4 9 -8 20 -8 11 0 20 4 20 8 0 4 -9 8 -20 8 -11 0 -20
-4 -20 -8z"/>
<path d="M605 800 c3 -5 8 -10 11 -10 2 0 4 5 4 10 0 6 -5 10 -11 10 -5 0 -7
-4 -4 -10z"/>
<path d="M630 802 c0 -4 9 -8 20 -8 11 0 20 4 20 8 0 4 -9 8 -20 8 -11 0 -20
-4 -20 -8z"/>
<path d="M685 800 c3 -5 8 -10 11 -10 2 0 4 5 4 10 0 6 -5 10 -11 10 -5 0 -7
-4 -4 -10z"/>
<path d="M710 802 c0 -4 9 -8 20 -8 11 0 20 4 20 8 0 4 -9 8 -20 8 -11 0 -20
-4 -20 -8z"/>
<path d="M765 800 c3 -5 8 -10 11 -10 2 0 4 5 4 10 0 6 -5 10 -11 10 -5 0 -7
-4 -4 -10z"/>
<path d="M790 801 c0 -4 11 -7 25 -7 14 0 25 3 25 7 0 3 -11 7 -25 7 -14 0
-25 -4 -25 -7z"/>
<path d="M850 802 c0 -4 52 -7 115 -7 63 0 115 3 115 6 0 3 -52 7 -115 7 -63
1 -115 -2 -115 -6z"/>
<path d="M1090 802 c0 -4 14 -8 30 -7 17 0 30 3 30 7 0 5 -13 8 -30 8 -16 0
-30 -4 -30 -8z"/>
<path d="M1165 800 c3 -5 8 -10 11 -10 2 0 4 5 4 10 0 6 -5 10 -11 10 -5 0 -7
-4 -4 -10z"/>
<path d="M1190 802 c0 -4 9 -8 20 -8 11 0 20 4 20 8 0 4 -9 8 -20 8 -11 0 -20
-4 -20 -8z"/>
<path d="M1245 800 c3 -5 8 -10 11 -10 2 0 4 5 4 10 0 6 -5 10 -11 10 -5 0 -7
-4 -4 -10z"/>
<path d="M1270 802 c0 -4 155 -7 345 -7 190 0 345 3 345 6 0 4 -155 7 -345 7
-190 0 -345 -3 -345 -6z"/>
<path d="M1970 802 c0 -9 237 -9 245 0 3 3 -51 6 -120 6 -69 0 -125 -3 -125
-6z"/>
</g>
</svg>
